# xmcd
#
# Track frame offsets: 
#        150
#        16002
#        31519
#        47190
#        64095
#        78773
#        90193
#        107442
#        125078
#        146517
#        167403
#        184410
#        198327
#        210159
#        225361
#        246036
#        262644
#        271601
#        287267
#        297221
#        316334
#        343175
#
# Disc length: 4785 seconds
#
# Revision: 0
# Processed by: cddbd v1.5.2PL0 Copyright (c) Steve Scherf et al.
# Submitted via: ExactAudioCopy v1.3
#
DISCID=1212af16
DTITLE=Various Artist - Akella Presents - vol. 127 - Rockin' Rollers 
DTITLE=Blues  CD2
DYEAR=2018
DGENRE=Rock and Roll
TTITLE0=Randy Volin - Route 66
TTITLE1=Little Ed - Musical Mechanical Electrical Man
TTITLE2=Pepe Ahlqvist - Good Morning Little Schoolgirl
TTITLE3=Johnny One Eye - Someone Like Me
TTITLE4=Jock Rockenbach - The Corner Of Hip And Fun
TTITLE5=The Kentucky Headhunters - Party Zone
TTITLE6=Tommy Castro and The Painkillers - Got A Lot
TTITLE7=Big Boy Bloater - That Ain't My Name
TTITLE8=The Taildraggers - Big Barn Boogie
TTITLE9=Alex Jenkins - Rebel With A Cause
TTITLE10=Scott Keeton - Look At That Girl
TTITLE11=Wailin' Walker - Shit, Shower And Shave
TTITLE12=Jay Willie Blues Band - The Wobble
TTITLE13=Marcia Ball - Married Life
TTITLE14=Arlen Roth - Rocket 88
TTITLE15=The Tailgators - Little Darlin' Be Mine
TTITLE16=Sonny Kenn - Good Golly Miss Molly
TTITLE17=Big Black Bible - Holy Roller Woman
TTITLE18=Hadden Sayers - Tippin' In
TTITLE19=Brett Wellman - Fluffin' the Fuzzies
TTITLE20=Bluesville Station - Apple Tree Creek
TTITLE21=Green - Hit Me
EXTD=
EXTT0=
EXTT1=
EXTT2=
EXTT3=
EXTT4=
EXTT5=
EXTT6=
EXTT7=
EXTT8=
EXTT9=
EXTT10=
EXTT11=
EXTT12=
EXTT13=
EXTT14=
EXTT15=
EXTT16=
EXTT17=
EXTT18=
EXTT19=
EXTT20=
EXTT21=
PLAYORDER=
